<?xml version="1.0" encoding="UTF-8"?>
<svg version="1.1" viewBox="0 0 1536 512" xmlns="http://www.w3.org/2000/svg">
  <style>
  .text {
    fill: #000;
  }
  @media (prefers-color-scheme: dark) {
    .text {
      fill: #fff;
    }
  }
  </style>
 <defs>
  <linearGradient id="linear-gradient-6" x1="110.25" x2="496.14" y1="213.3" y2="436.09" gradientTransform="matrix(.6218 0 0 .6218 100.51 103.53)" gradientUnits="userSpaceOnUse">
   <stop stop-color="#3ddc84" offset="0"/>
   <stop stop-color="#00A4DC" offset="1"/>
  </linearGradient>
 </defs>
 <title>banner-dark</title>
 <g id="banner-dark">
  <path id="logo" d="m307.94 275.03 15.785-27.34c2.192-3.7916-3.4954-7.0797-5.6875-3.288l-15.985 27.686c-12.223-5.5788-25.952-8.6852-40.6-8.6852-14.648 0-28.375 3.1109-40.598 8.6852l-15.983-27.686c-2.1884-3.7952-7.8773-0.51167-5.6889 3.2836l15.787 27.345c-27.107 14.743-45.647 42.185-48.359 74.607h189.69c-2.715-32.422-21.254-59.863-48.359-74.607m-46.458-252.33c-61.813 0-260.7 360.64-230.39 421.55 30.305 60.91 430.79 60.208 460.79 0 30.004-60.208-168.58-421.55-230.39-421.55zm151.02 368.77c-19.668 39.436-282.07 39.938-301.94 0-19.869-39.938 110.48-276.25 150.92-276.25s170.69 236.72 151.02 276.25z" fill="url(#linear-gradient-6)" stroke-width=".14885"/>
  <g class="text" style="font-variation-settings:'wght' 400" aria-label="Findroid">
   <path d="m569.69 357.11q-3.7333 0-6.1333-2.4-2.1333-2.4-2.1333-5.6v-170.67q0-3.2 2.4-5.6t5.6-2.4h97.067q3.4667 0 5.6 2.4 2.4 2.1333 2.4 5.6 0 3.2-2.4 5.6-2.1333 2.1333-5.6 2.1333h-89.867l1.0667-1.6v70.933l-1.3333-2.4h78.133q3.4667 0 5.6 2.4 2.4 2.1333 2.4 5.3333 0 3.4667-2.4 5.6-2.1333 2.1333-5.6 2.1333h-78.667l1.8667-2.1333v82.667q0 3.2-2.4 5.6-2.1333 2.4-5.6 2.4z"/>
   <path d="m723.83 349.11q0 3.2-2.4 5.6t-5.6 2.4q-3.4667 0-5.8667-2.4-2.1333-2.4-2.1333-5.6v-122.67q0-3.2 2.1333-5.6 2.4-2.4 5.8667-2.4t5.6 2.4q2.4 2.4 2.4 5.6zm-8-148.53q-5.6 0-8.5333-2.4-2.6667-2.6667-2.6667-7.4667v-2.6667q0-4.8 2.9333-7.2 3.2-2.6667 8.5333-2.6667 5.0667 0 7.7333 2.6667 2.9333 2.4 2.9333 7.2v2.6667q0 4.8-2.9333 7.4667-2.6667 2.4-8 2.4z"/>
   <path d="m829.69 217.65q17.6 0 28 7.2 10.667 6.9333 15.2 19.2 4.8 12 4.8 26.667v78.4q0 3.2-2.4 5.6t-5.6 2.4q-3.7333 0-5.8667-2.4t-2.1333-5.6v-77.6q0-10.667-3.4667-19.467t-11.467-14.133q-7.7333-5.3333-20.533-5.3333-11.467 0-21.867 5.3333-10.133 5.3333-16.533 14.133-6.4 8.8-6.4 19.467v77.6q0 3.2-2.4 5.6-2.4 2.4-5.6 2.4-3.7333 0-5.8667-2.4-2.1333-2.4-2.1333-5.6v-119.47q0-3.2 2.1333-5.6 2.4-2.4 5.8667-2.4t5.6 2.4q2.4 2.4 2.4 5.6v22.4l-6.1333 9.6q0.53333-8.5333 5.3333-16.267 5.0667-8 12.8-14.133 7.7334-6.4 17.067-9.8667 9.6-3.7333 19.2-3.7333z"/>
   <path d="m1030.2 159.78q3.4667 0 5.6 2.4 2.4 2.1333 2.4 5.6v181.33q0 3.2-2.4 5.6t-5.6 2.4q-3.7333 0-5.8666-2.4-2.1334-2.4-2.1334-5.6v-31.733l4.5334-3.7333q0 7.4667-4 15.733-4 8-11.467 14.933-7.2 6.9333-17.067 11.2-9.6 4.2667-21.067 4.2667-17.6 0-32-9.3333-14.133-9.3334-22.4-25.333-8.2667-16-8.2667-36.533 0-20.267 8.2667-36.267 8.2667-16.267 22.4-25.333 14.133-9.3333 31.733-9.3333 11.2 0 21.067 4 9.8667 4 17.333 10.933 7.7333 6.9333 12 16 4.5333 8.8 4.5333 18.4l-5.6-4v-95.2q0-3.2 2.1334-5.6 2.1333-2.4 5.8666-2.4zm-55.467 185.07q14.133 0 25.067-7.2 10.933-7.4667 17.067-20 6.4-12.8 6.4-29.067 0-16-6.4-28.533-6.1334-12.8-17.067-20-10.933-7.4667-25.067-7.4667-13.867 0-25.067 7.4667-10.933 7.2-17.333 20-6.1334 12.533-6.1334 28.533t6.1334 28.8q6.4 12.8 17.333 20.267 11.2 7.2 25.067 7.2z"/>
   <path d="m1088.1 357.11q-3.7333 0-5.8667-2.4-2.1333-2.4-2.1333-5.6v-119.47q0-3.2 2.1333-5.6 2.4-2.4 5.8667-2.4t5.6 2.4q2.4 2.4 2.4 5.6v40l-4 0.8q0.8-9.3333 4.5333-18.4 4-9.3334 10.667-17.067t15.733-12.533q9.3333-4.8 20.8-4.8 4.8 0 9.3333 2.1333 4.5334 1.8667 4.5334 6.4 0 4-2.1334 6.1333-2.1333 2.1333-5.0666 2.1333-2.4 0-5.3334-1.3333-2.6666-1.3333-7.2-1.3333-7.4667 0-14.933 4.5333-7.4667 4.2667-13.6 11.733-6.1334 7.4667-9.8667 16.8-3.4667 9.0667-3.4667 18.4v65.867q0 3.2-2.4 5.6t-5.6 2.4z"/>
   <path d="m1302.8 288.85q0 20.267-9.0667 36.533-8.8 16-24 25.333-15.2 9.0667-34.4 9.0667-18.933 0-34.4-9.0667-15.2-9.3334-24.267-25.333-8.8-16.267-8.8-36.533 0-20.533 8.8-36.533 9.0667-16 24.267-25.333 15.467-9.3333 34.4-9.3333 19.2 0 34.4 9.3333 15.2 9.3334 24 25.333 9.0667 16 9.0667 36.533zm-16 0q0-16.267-6.6667-28.8-6.6666-12.8-18.4-20-11.467-7.4667-26.4-7.4667-14.667 0-26.4 7.4667-11.467 7.2-18.4 20-6.6667 12.533-6.6667 28.8 0 16.267 6.6667 28.8 6.9334 12.533 18.4 20 11.733 7.2 26.4 7.2 14.933 0 26.4-7.2 11.733-7.4667 18.4-20 6.6667-12.533 6.6667-28.8z"/>
   <path d="m1351 349.11q0 3.2-2.4 5.6t-5.6 2.4q-3.4667 0-5.8667-2.4-2.1333-2.4-2.1333-5.6v-122.67q0-3.2 2.1333-5.6 2.4-2.4 5.8667-2.4 3.4666 0 5.6 2.4 2.4 2.4 2.4 5.6zm-8-148.53q-5.6 0-8.5334-2.4-2.6666-2.6667-2.6666-7.4667v-2.6667q0-4.8 2.9333-7.2 3.2-2.6667 8.5333-2.6667 5.0667 0 7.7334 2.6667 2.9333 2.4 2.9333 7.2v2.6667q0 4.8-2.9333 7.4667-2.6667 2.4-8 2.4z"/>
   <path d="m1503.3 159.78q3.4667 0 5.6 2.4 2.4 2.1333 2.4 5.6v181.33q0 3.2-2.4 5.6t-5.6 2.4q-3.7333 0-5.8667-2.4-2.1333-2.4-2.1333-5.6v-31.733l4.5333-3.7333q0 7.4667-4 15.733-4 8-11.467 14.933-7.2 6.9333-17.067 11.2-9.6001 4.2667-21.067 4.2667-17.6 0-32-9.3333-14.133-9.3334-22.4-25.333-8.2667-16-8.2667-36.533 0-20.267 8.2667-36.267 8.2667-16.267 22.4-25.333 14.133-9.3333 31.733-9.3333 11.2 0 21.067 4 9.8667 4 17.333 10.933 7.7334 6.9333 12 16 4.5333 8.8 4.5333 18.4l-5.6-4v-95.2q0-3.2 2.1333-5.6 2.1334-2.4 5.8667-2.4zm-55.467 185.07q14.133 0 25.067-7.2 10.933-7.4667 17.067-20 6.4001-12.8 6.4001-29.067 0-16-6.4001-28.533-6.1333-12.8-17.067-20-10.933-7.4667-25.067-7.4667-13.867 0-25.067 7.4667-10.933 7.2-17.333 20-6.1333 12.533-6.1333 28.533t6.1333 28.8q6.4 12.8 17.333 20.267 11.2 7.2 25.067 7.2z"/>
  </g>
  <g class="text" style="font-variation-settings:'wght' 400" aria-label="For Jellyfin">
   <path d="m1093.4 453.74q-1.1947 0-1.9627-0.768-0.6826-0.768-0.6826-1.792v-54.613q0-1.024 0.768-1.792t1.792-0.768h31.061q1.1093 0 1.792 0.768 0.768 0.68267 0.768 1.792 0 1.024-0.768 1.792-0.6827 0.68266-1.792 0.68266h-28.757l0.3413-0.512v22.699l-0.4267-0.768h25.003q1.1093 0 1.792 0.768 0.768 0.68267 0.768 1.7067 0 1.1093-0.768 1.792-0.6827 0.68266-1.792 0.68266h-25.173l0.5973-0.68266v26.453q0 1.024-0.768 1.792-0.6827 0.768-1.792 0.768z"/>
   <path d="m1176.8 431.9q0 6.4853-2.9013 11.691-2.816 5.12-7.68 8.1067-4.864 2.9013-11.008 2.9013-6.0587 0-11.008-2.9013-4.864-2.9867-7.7653-8.1067-2.816-5.2053-2.816-11.691 0-6.5707 2.816-11.691 2.9013-5.12 7.7653-8.1067 4.9493-2.9867 11.008-2.9867 6.144 0 11.008 2.9867 4.864 2.9867 7.68 8.1067 2.9013 5.12 2.9013 11.691zm-5.12 0q0-5.2053-2.1333-9.216-2.1333-4.096-5.888-6.4-3.6693-2.3893-8.448-2.3893-4.6933 0-8.448 2.3893-3.6693 2.304-5.888 6.4-2.1333 4.0107-2.1333 9.216 0 5.2053 2.1333 9.216 2.2187 4.0107 5.888 6.4 3.7547 2.304 8.448 2.304 4.7787 0 8.448-2.304 3.7547-2.3893 5.888-6.4 2.1333-4.0107 2.1333-9.216z"/>
   <path d="m1189.9 453.74q-1.1947 0-1.8774-0.768-0.6826-0.768-0.6826-1.792v-38.229q0-1.024 0.6826-1.792 0.768-0.768 1.8774-0.768 1.1093 0 1.792 0.768 0.768 0.768 0.768 1.792v12.8l-1.28 0.256q0.256-2.9867 1.4506-5.888 1.28-2.9867 3.4134-5.4613 2.1333-2.4747 5.0346-4.0107 2.9867-1.536 6.656-1.536 1.536 0 2.9867 0.68267 1.4507 0.59733 1.4507 2.048 0 1.28-0.6827 1.9627-0.6827 0.68267-1.6213 0.68267-0.768 0-1.7067-0.42667-0.8533-0.42666-2.304-0.42666-2.3893 0-4.7787 1.4507-2.3893 1.3653-4.352 3.7547-1.9626 2.3893-3.1573 5.376-1.1093 2.9013-1.1093 5.888v21.077q0 1.024-0.768 1.792t-1.792 0.768z"/>
   <path d="m1258.9 454.59q-5.376 0-9.6427-2.9867-4.2667-2.9867-6.4853-7.8507-0.4267-0.768-0.4267-1.3653 0-1.1093 0.8533-1.7067 0.8534-0.68266 1.7067-0.68266t1.3653 0.42666q0.5974 0.42667 1.024 1.024 1.6214 3.584 4.6934 5.8027 3.072 2.2187 6.912 2.2187 3.9253 0 6.912-1.6213 2.9866-1.7067 4.608-4.6933 1.7066-2.9867 1.7066-6.8267v-39.765q0-1.024 0.768-1.792 0.8534-0.768 1.9627-0.768 1.1947 0 1.8773 0.768 0.768 0.768 0.768 1.792v39.765q0 5.2907-2.3893 9.472-2.3893 4.096-6.5707 6.4853-4.1813 2.304-9.6426 2.304z"/>
   <path d="m1311.6 454.59q-6.5706 0-11.605-2.816t-7.8507-7.8507q-2.816-5.0347-2.816-11.776 0-7.2533 2.816-12.373 2.9014-5.12 7.424-7.8507 4.608-2.816 9.728-2.816 3.7547 0 7.2534 1.3653 3.584 1.28 6.3146 3.9253 2.7307 2.56 4.4374 6.3147 1.7066 3.7547 1.792 8.704 0 1.024-0.768 1.792-0.768 0.68266-1.792 0.68266h-34.219l-1.024-4.608h33.621l-1.1093 1.024v-1.7067q-0.4267-4.0107-2.6453-6.8267-2.2187-2.816-5.376-4.2667-3.072-1.4507-6.4854-1.4507-2.56 0-5.2906 1.024-2.6454 1.024-4.864 3.2427-2.1334 2.1333-3.4987 5.5467-1.3653 3.328-1.3653 7.936 0 5.0347 2.048 9.1307 2.048 4.096 5.888 6.4853 3.84 2.3893 9.3013 2.3893 2.9013 0 5.2907-0.85334 2.3893-0.85333 4.1813-2.2187 1.8773-1.4507 3.072-2.9867 0.9387-0.768 1.792-0.768 0.9387 0 1.536 0.68267 0.6827 0.68267 0.6827 1.536 0 1.024-0.8534 1.792-2.56 3.072-6.656 5.376-4.096 2.2187-8.96 2.2187z"/>
   <path d="m1345.4 451.18q0 1.024-0.768 1.792t-1.792 0.768q-1.1094 0-1.8774-0.768-0.6826-0.768-0.6826-1.792v-58.027q0-1.024 0.768-1.792t1.792-0.768q1.1093 0 1.792 0.768 0.768 0.768 0.768 1.792z"/>
   <path d="m1365 451.18q0 1.024-0.768 1.792t-1.792 0.768q-1.1093 0-1.8773-0.768-0.6827-0.768-0.6827-1.792v-58.027q0-1.024 0.768-1.792t1.792-0.768q1.1093 0 1.792 0.768 0.768 0.768 0.768 1.792z"/>
   <path d="m1410.2 409.37q1.1093 0 1.792 0.768 0.768 0.768 0.768 1.792v37.632q0 6.912-2.7307 11.605-2.7307 4.7787-7.3387 7.168-4.608 2.4747-10.496 2.4747-3.6693 0-6.8266-0.85334-3.072-0.76799-5.0347-2.048-1.024-0.59734-1.536-1.4507t-0.085-1.792q0.4266-1.1947 1.28-1.6213 0.9386-0.34134 1.8773 0.0853 1.4507 0.768 4.1813 1.8773 2.7307 1.1093 6.2294 1.1093 4.6933 0 8.1066-1.9627 3.4987-1.9627 5.376-5.7173 1.8774-3.6693 1.8774-8.7893v-6.144l0.5973 2.048q-1.28 2.6453-3.6693 4.6933-2.304 2.048-5.376 3.2427-2.9867 1.1093-6.4 1.1093-5.12 0-8.5334-2.048-3.328-2.1333-4.9493-5.8027t-1.6213-8.6187v-26.197q0-1.024 0.6826-1.792 0.6827-0.768 1.8774-0.768 1.1093 0 1.792 0.768 0.768 0.768 0.768 1.792v25.429q0 5.9733 2.56 9.216 2.6453 3.2427 8.5333 3.2427 3.6693 0 6.7413-1.7067 3.072-1.792 5.0347-4.608 1.9627-2.9013 1.9627-6.144v-25.429q0-1.024 0.6826-1.792 0.768-0.768 1.8774-0.768z"/>
   <path d="m1441.9 390.94q1.28 0 2.7306 0.256 1.536 0.256 2.6454 0.93867 1.1093 0.59733 1.1093 1.8773 0 0.93867-0.6827 1.7067-0.6826 0.68266-1.536 0.68266-0.8533 0-2.1333-0.42666-1.28-0.512-2.7307-0.512-1.792 0-3.072 0.85333-1.28 0.768-1.9626 2.304-0.6827 1.4507-0.6827 3.584v48.981q0 1.024-0.768 1.792-0.6827 0.768-1.792 0.768t-1.8773-0.768q-0.6827-0.768-0.6827-1.792v-48.981q0-5.4613 3.1574-8.3627 3.2426-2.9013 8.2773-2.9013zm3.2426 20.053q1.024 0 1.7067 0.68266 0.6827 0.68267 0.6827 1.7067t-0.6827 1.7067q-0.6827 0.68267-1.7067 0.68267h-20.907q-0.9387 0-1.7067-0.68267-0.6826-0.768-0.6826-1.7067 0-1.1093 0.6826-1.7067 0.768-0.68266 1.7067-0.68266zm16.043 40.192q0 1.024-0.768 1.792t-1.792 0.768q-1.1093 0-1.8773-0.768-0.6827-0.768-0.6827-1.792v-39.253q0-1.024 0.6827-1.792 0.768-0.768 1.8773-0.768t1.792 0.768q0.768 0.768 0.768 1.792zm-2.56-47.531q-1.792 0-2.7307-0.768-0.8533-0.85333-0.8533-2.3893v-0.85333q0-1.536 0.9387-2.304 1.024-0.85333 2.7306-0.85333 1.6214 0 2.4747 0.85333 0.9387 0.768 0.9387 2.304v0.85333q0 1.536-0.9387 2.3893-0.8533 0.768-2.56 0.768z"/>
   <path d="m1495.1 409.11q5.632 0 8.96 2.304 3.4133 2.2187 4.864 6.144 1.5359 3.84 1.5359 8.5333v25.088q0 1.024-0.768 1.792-0.7679 0.768-1.7919 0.768-1.1947 0-1.8774-0.768-0.6826-0.768-0.6826-1.792v-24.832q0-3.4133-1.1094-6.2293-1.1093-2.816-3.6693-4.5227-2.4747-1.7067-6.5707-1.7067-3.6693 0-6.9973 1.7067-3.2427 1.7067-5.2907 4.5227t-2.048 6.2293v24.832q0 1.024-0.768 1.792t-1.792 0.768q-1.1946 0-1.8773-0.768t-0.6827-1.792v-38.229q0-1.024 0.6827-1.792 0.768-0.768 1.8773-0.768 1.1094 0 1.792 0.768 0.768 0.768 0.768 1.792v7.168l-1.9626 3.072q0.1706-2.7307 1.7066-5.2053 1.6214-2.56 4.096-4.5227 2.4747-2.048 5.4614-3.1573 3.072-1.1947 6.144-1.1947z"/>
  </g>
 </g>
</svg>
